<mxfile host="app.diagrams.net" modified="2022-08-01T18:50:32.650Z" agent="5.0 (Windows NT 10.0; Win64; x64) AppleWebKit/537.36 (KHTML, like Gecko) Chrome/103.0.0.0 Safari/537.36" etag="l-T-FAtH9YbKqH_KMKnW" version="20.2.0" type="github">
  <diagram id="Bta4W7-dgrA3sp41XD7f" name="Page-1">
    <mxGraphModel dx="1221" dy="1772" grid="1" gridSize="10" guides="1" tooltips="1" connect="1" arrows="1" fold="1" page="1" pageScale="1" pageWidth="850" pageHeight="1100" math="0" shadow="0">
      <root>
        <mxCell id="0" />
        <mxCell id="1" parent="0" />
        <mxCell id="YjRkIidzmu9C3SZWxRxo-3" value="Insert AQI data&lt;br&gt;" style="swimlane;html=1;childLayout=stackLayout;resizeParent=1;resizeParentMax=0;horizontal=0;startSize=20;horizontalStack=0;" parent="1" vertex="1">
          <mxGeometry x="90" y="-1040" width="1190" height="960" as="geometry" />
        </mxCell>
        <mxCell id="YjRkIidzmu9C3SZWxRxo-14" value="Bangladesh Meteorological Department&lt;br&gt;" style="swimlane;html=1;startSize=20;horizontal=0;" parent="YjRkIidzmu9C3SZWxRxo-3" vertex="1">
          <mxGeometry x="20" width="1170" height="240" as="geometry" />
        </mxCell>
        <mxCell id="YZFd6w_Mn8chgRQiEdNk-71" value="" style="edgeStyle=orthogonalEdgeStyle;rounded=0;orthogonalLoop=1;jettySize=auto;html=1;" edge="1" parent="YjRkIidzmu9C3SZWxRxo-14" source="YjRkIidzmu9C3SZWxRxo-16" target="YZFd6w_Mn8chgRQiEdNk-70">
          <mxGeometry relative="1" as="geometry" />
        </mxCell>
        <mxCell id="YjRkIidzmu9C3SZWxRxo-16" value="" style="points=[[0.145,0.145,0],[0.5,0,0],[0.855,0.145,0],[1,0.5,0],[0.855,0.855,0],[0.5,1,0],[0.145,0.855,0],[0,0.5,0]];shape=mxgraph.bpmn.event;html=1;verticalLabelPosition=bottom;labelBackgroundColor=#ffffff;verticalAlign=top;align=center;perimeter=ellipsePerimeter;outlineConnect=0;aspect=fixed;outline=standard;symbol=general;" parent="YjRkIidzmu9C3SZWxRxo-14" vertex="1">
          <mxGeometry x="30" y="95" width="50" height="50" as="geometry" />
        </mxCell>
        <mxCell id="YjRkIidzmu9C3SZWxRxo-43" value="" style="edgeStyle=orthogonalEdgeStyle;rounded=0;orthogonalLoop=1;jettySize=auto;html=1;" parent="YjRkIidzmu9C3SZWxRxo-14" source="YjRkIidzmu9C3SZWxRxo-21" target="YjRkIidzmu9C3SZWxRxo-38" edge="1">
          <mxGeometry relative="1" as="geometry" />
        </mxCell>
        <mxCell id="YjRkIidzmu9C3SZWxRxo-21" value="Sends Air Pollution Data to the Ministry" style="points=[[0.25,0,0],[0.5,0,0],[0.75,0,0],[1,0.25,0],[1,0.5,0],[1,0.75,0],[0.75,1,0],[0.5,1,0],[0.25,1,0],[0,0.75,0],[0,0.5,0],[0,0.25,0]];shape=mxgraph.bpmn.task;whiteSpace=wrap;rectStyle=rounded;size=10;taskMarker=abstract;" parent="YjRkIidzmu9C3SZWxRxo-14" vertex="1">
          <mxGeometry x="740" y="72.5" width="120" height="95" as="geometry" />
        </mxCell>
        <mxCell id="YjRkIidzmu9C3SZWxRxo-38" value="" style="points=[[0.145,0.145,0],[0.5,0,0],[0.855,0.145,0],[1,0.5,0],[0.855,0.855,0],[0.5,1,0],[0.145,0.855,0],[0,0.5,0]];shape=mxgraph.bpmn.event;html=1;verticalLabelPosition=bottom;labelBackgroundColor=#ffffff;verticalAlign=top;align=center;perimeter=ellipsePerimeter;outlineConnect=0;aspect=fixed;outline=end;symbol=terminate2;" parent="YjRkIidzmu9C3SZWxRxo-14" vertex="1">
          <mxGeometry x="1080" y="95" width="50" height="50" as="geometry" />
        </mxCell>
        <mxCell id="YZFd6w_Mn8chgRQiEdNk-72" value="" style="edgeStyle=orthogonalEdgeStyle;rounded=0;orthogonalLoop=1;jettySize=auto;html=1;" edge="1" parent="YjRkIidzmu9C3SZWxRxo-14" source="YZFd6w_Mn8chgRQiEdNk-70" target="YjRkIidzmu9C3SZWxRxo-21">
          <mxGeometry relative="1" as="geometry" />
        </mxCell>
        <mxCell id="YZFd6w_Mn8chgRQiEdNk-70" value="Collects air pollution data from sensors and satellites" style="rounded=1;whiteSpace=wrap;html=1;" vertex="1" parent="YjRkIidzmu9C3SZWxRxo-14">
          <mxGeometry x="330" y="72.5" width="120" height="95" as="geometry" />
        </mxCell>
        <mxCell id="YjRkIidzmu9C3SZWxRxo-4" value="Weather Station" style="swimlane;html=1;startSize=20;horizontal=0;" parent="YjRkIidzmu9C3SZWxRxo-3" vertex="1">
          <mxGeometry x="20" y="240" width="1170" height="230" as="geometry" />
        </mxCell>
        <mxCell id="YZFd6w_Mn8chgRQiEdNk-75" value="" style="edgeStyle=orthogonalEdgeStyle;rounded=0;orthogonalLoop=1;jettySize=auto;html=1;" edge="1" parent="YjRkIidzmu9C3SZWxRxo-4" source="YjRkIidzmu9C3SZWxRxo-17" target="YZFd6w_Mn8chgRQiEdNk-73">
          <mxGeometry relative="1" as="geometry" />
        </mxCell>
        <mxCell id="YjRkIidzmu9C3SZWxRxo-17" value="" style="points=[[0.145,0.145,0],[0.5,0,0],[0.855,0.145,0],[1,0.5,0],[0.855,0.855,0],[0.5,1,0],[0.145,0.855,0],[0,0.5,0]];shape=mxgraph.bpmn.event;html=1;verticalLabelPosition=bottom;labelBackgroundColor=#ffffff;verticalAlign=top;align=center;perimeter=ellipsePerimeter;outlineConnect=0;aspect=fixed;outline=standard;symbol=general;" parent="YjRkIidzmu9C3SZWxRxo-4" vertex="1">
          <mxGeometry x="30" y="90" width="50" height="50" as="geometry" />
        </mxCell>
        <mxCell id="YjRkIidzmu9C3SZWxRxo-44" value="" style="edgeStyle=orthogonalEdgeStyle;rounded=0;orthogonalLoop=1;jettySize=auto;html=1;" parent="YjRkIidzmu9C3SZWxRxo-4" source="YjRkIidzmu9C3SZWxRxo-20" target="YjRkIidzmu9C3SZWxRxo-37" edge="1">
          <mxGeometry relative="1" as="geometry" />
        </mxCell>
        <mxCell id="YjRkIidzmu9C3SZWxRxo-20" value="Sends raw AQI data to the Ministry" style="points=[[0.25,0,0],[0.5,0,0],[0.75,0,0],[1,0.25,0],[1,0.5,0],[1,0.75,0],[0.75,1,0],[0.5,1,0],[0.25,1,0],[0,0.75,0],[0,0.5,0],[0,0.25,0]];shape=mxgraph.bpmn.task;whiteSpace=wrap;rectStyle=rounded;size=10;taskMarker=abstract;" parent="YjRkIidzmu9C3SZWxRxo-4" vertex="1">
          <mxGeometry x="740" y="75" width="120" height="80" as="geometry" />
        </mxCell>
        <mxCell id="YjRkIidzmu9C3SZWxRxo-37" value="" style="points=[[0.145,0.145,0],[0.5,0,0],[0.855,0.145,0],[1,0.5,0],[0.855,0.855,0],[0.5,1,0],[0.145,0.855,0],[0,0.5,0]];shape=mxgraph.bpmn.event;html=1;verticalLabelPosition=bottom;labelBackgroundColor=#ffffff;verticalAlign=top;align=center;perimeter=ellipsePerimeter;outlineConnect=0;aspect=fixed;outline=end;symbol=terminate2;" parent="YjRkIidzmu9C3SZWxRxo-4" vertex="1">
          <mxGeometry x="1080" y="90" width="50" height="50" as="geometry" />
        </mxCell>
        <mxCell id="YZFd6w_Mn8chgRQiEdNk-74" value="" style="edgeStyle=orthogonalEdgeStyle;rounded=0;orthogonalLoop=1;jettySize=auto;html=1;" edge="1" parent="YjRkIidzmu9C3SZWxRxo-4" source="YZFd6w_Mn8chgRQiEdNk-73" target="YjRkIidzmu9C3SZWxRxo-20">
          <mxGeometry relative="1" as="geometry" />
        </mxCell>
        <mxCell id="YZFd6w_Mn8chgRQiEdNk-73" value="Collects AQI data from sensors and satellites" style="rounded=1;whiteSpace=wrap;html=1;" vertex="1" parent="YjRkIidzmu9C3SZWxRxo-4">
          <mxGeometry x="330" y="72.5" width="120" height="85" as="geometry" />
        </mxCell>
        <mxCell id="YjRkIidzmu9C3SZWxRxo-5" value="Ministry" style="swimlane;html=1;startSize=20;horizontal=0;" parent="YjRkIidzmu9C3SZWxRxo-3" vertex="1">
          <mxGeometry x="20" y="470" width="1170" height="250" as="geometry" />
        </mxCell>
        <mxCell id="YjRkIidzmu9C3SZWxRxo-30" value="" style="edgeStyle=orthogonalEdgeStyle;rounded=0;orthogonalLoop=1;jettySize=auto;html=1;" parent="YjRkIidzmu9C3SZWxRxo-5" source="YjRkIidzmu9C3SZWxRxo-18" target="YjRkIidzmu9C3SZWxRxo-22" edge="1">
          <mxGeometry relative="1" as="geometry" />
        </mxCell>
        <mxCell id="YjRkIidzmu9C3SZWxRxo-18" value="" style="points=[[0.145,0.145,0],[0.5,0,0],[0.855,0.145,0],[1,0.5,0],[0.855,0.855,0],[0.5,1,0],[0.145,0.855,0],[0,0.5,0]];shape=mxgraph.bpmn.event;html=1;verticalLabelPosition=bottom;labelBackgroundColor=#ffffff;verticalAlign=top;align=center;perimeter=ellipsePerimeter;outlineConnect=0;aspect=fixed;outline=standard;symbol=general;" parent="YjRkIidzmu9C3SZWxRxo-5" vertex="1">
          <mxGeometry x="30" y="100" width="50" height="50" as="geometry" />
        </mxCell>
        <mxCell id="YjRkIidzmu9C3SZWxRxo-28" value="" style="edgeStyle=orthogonalEdgeStyle;rounded=0;orthogonalLoop=1;jettySize=auto;html=1;" parent="YjRkIidzmu9C3SZWxRxo-5" source="YjRkIidzmu9C3SZWxRxo-22" target="YjRkIidzmu9C3SZWxRxo-23" edge="1">
          <mxGeometry relative="1" as="geometry" />
        </mxCell>
        <mxCell id="YjRkIidzmu9C3SZWxRxo-22" value="Receives Air Pollution data from Bangladesh meteorological department" style="points=[[0.25,0,0],[0.5,0,0],[0.75,0,0],[1,0.25,0],[1,0.5,0],[1,0.75,0],[0.75,1,0],[0.5,1,0],[0.25,1,0],[0,0.75,0],[0,0.5,0],[0,0.25,0]];shape=mxgraph.bpmn.task;whiteSpace=wrap;rectStyle=rounded;size=10;taskMarker=abstract;" parent="YjRkIidzmu9C3SZWxRxo-5" vertex="1">
          <mxGeometry x="250" y="85" width="120" height="80" as="geometry" />
        </mxCell>
        <mxCell id="YjRkIidzmu9C3SZWxRxo-29" value="" style="edgeStyle=orthogonalEdgeStyle;rounded=0;orthogonalLoop=1;jettySize=auto;html=1;" parent="YjRkIidzmu9C3SZWxRxo-5" source="YjRkIidzmu9C3SZWxRxo-23" target="YjRkIidzmu9C3SZWxRxo-24" edge="1">
          <mxGeometry relative="1" as="geometry" />
        </mxCell>
        <mxCell id="YjRkIidzmu9C3SZWxRxo-23" value="Receives raw AQI data from the weather station" style="points=[[0.25,0,0],[0.5,0,0],[0.75,0,0],[1,0.25,0],[1,0.5,0],[1,0.75,0],[0.75,1,0],[0.5,1,0],[0.25,1,0],[0,0.75,0],[0,0.5,0],[0,0.25,0]];shape=mxgraph.bpmn.task;whiteSpace=wrap;rectStyle=rounded;size=10;taskMarker=abstract;" parent="YjRkIidzmu9C3SZWxRxo-5" vertex="1">
          <mxGeometry x="550" y="85" width="120" height="80" as="geometry" />
        </mxCell>
        <mxCell id="YjRkIidzmu9C3SZWxRxo-45" value="" style="edgeStyle=orthogonalEdgeStyle;rounded=0;orthogonalLoop=1;jettySize=auto;html=1;" parent="YjRkIidzmu9C3SZWxRxo-5" source="YjRkIidzmu9C3SZWxRxo-24" target="YjRkIidzmu9C3SZWxRxo-36" edge="1">
          <mxGeometry relative="1" as="geometry" />
        </mxCell>
        <mxCell id="YjRkIidzmu9C3SZWxRxo-24" value="Sends AQI data once every month to the representative of CASE" style="points=[[0.25,0,0],[0.5,0,0],[0.75,0,0],[1,0.25,0],[1,0.5,0],[1,0.75,0],[0.75,1,0],[0.5,1,0],[0.25,1,0],[0,0.75,0],[0,0.5,0],[0,0.25,0]];shape=mxgraph.bpmn.task;whiteSpace=wrap;rectStyle=rounded;size=10;taskMarker=abstract;" parent="YjRkIidzmu9C3SZWxRxo-5" vertex="1">
          <mxGeometry x="850" y="85" width="120" height="80" as="geometry" />
        </mxCell>
        <mxCell id="YjRkIidzmu9C3SZWxRxo-36" value="" style="points=[[0.145,0.145,0],[0.5,0,0],[0.855,0.145,0],[1,0.5,0],[0.855,0.855,0],[0.5,1,0],[0.145,0.855,0],[0,0.5,0]];shape=mxgraph.bpmn.event;html=1;verticalLabelPosition=bottom;labelBackgroundColor=#ffffff;verticalAlign=top;align=center;perimeter=ellipsePerimeter;outlineConnect=0;aspect=fixed;outline=end;symbol=terminate2;" parent="YjRkIidzmu9C3SZWxRxo-5" vertex="1">
          <mxGeometry x="1080" y="100" width="50" height="50" as="geometry" />
        </mxCell>
        <mxCell id="YjRkIidzmu9C3SZWxRxo-6" value="Representative of CASE" style="swimlane;html=1;startSize=20;horizontal=0;" parent="YjRkIidzmu9C3SZWxRxo-3" vertex="1">
          <mxGeometry x="20" y="720" width="1170" height="240" as="geometry">
            <mxRectangle x="20" y="240" width="460" height="30" as="alternateBounds" />
          </mxGeometry>
        </mxCell>
        <mxCell id="YjRkIidzmu9C3SZWxRxo-31" value="" style="edgeStyle=orthogonalEdgeStyle;rounded=0;orthogonalLoop=1;jettySize=auto;html=1;" parent="YjRkIidzmu9C3SZWxRxo-6" source="YjRkIidzmu9C3SZWxRxo-19" target="YjRkIidzmu9C3SZWxRxo-25" edge="1">
          <mxGeometry relative="1" as="geometry" />
        </mxCell>
        <mxCell id="YjRkIidzmu9C3SZWxRxo-19" value="" style="points=[[0.145,0.145,0],[0.5,0,0],[0.855,0.145,0],[1,0.5,0],[0.855,0.855,0],[0.5,1,0],[0.145,0.855,0],[0,0.5,0]];shape=mxgraph.bpmn.event;html=1;verticalLabelPosition=bottom;labelBackgroundColor=#ffffff;verticalAlign=top;align=center;perimeter=ellipsePerimeter;outlineConnect=0;aspect=fixed;outline=standard;symbol=general;" parent="YjRkIidzmu9C3SZWxRxo-6" vertex="1">
          <mxGeometry x="30" y="95" width="50" height="50" as="geometry" />
        </mxCell>
        <mxCell id="YjRkIidzmu9C3SZWxRxo-25" value="Receives monthly AQI data from ministry" style="points=[[0.25,0,0],[0.5,0,0],[0.75,0,0],[1,0.25,0],[1,0.5,0],[1,0.75,0],[0.75,1,0],[0.5,1,0],[0.25,1,0],[0,0.75,0],[0,0.5,0],[0,0.25,0]];shape=mxgraph.bpmn.task;whiteSpace=wrap;rectStyle=rounded;size=10;taskMarker=abstract;" parent="YjRkIidzmu9C3SZWxRxo-6" vertex="1">
          <mxGeometry x="180" y="80" width="120" height="80" as="geometry" />
        </mxCell>
        <mxCell id="YjRkIidzmu9C3SZWxRxo-34" value="" style="points=[[0.145,0.145,0],[0.5,0,0],[0.855,0.145,0],[1,0.5,0],[0.855,0.855,0],[0.5,1,0],[0.145,0.855,0],[0,0.5,0]];shape=mxgraph.bpmn.event;html=1;verticalLabelPosition=bottom;labelBackgroundColor=#ffffff;verticalAlign=top;align=center;perimeter=ellipsePerimeter;outlineConnect=0;aspect=fixed;outline=end;symbol=terminate2;" parent="YjRkIidzmu9C3SZWxRxo-6" vertex="1">
          <mxGeometry x="1080" y="95" width="50" height="50" as="geometry" />
        </mxCell>
        <mxCell id="YZFd6w_Mn8chgRQiEdNk-8" value="" style="edgeStyle=orthogonalEdgeStyle;rounded=0;orthogonalLoop=1;jettySize=auto;html=1;" edge="1" parent="YjRkIidzmu9C3SZWxRxo-6" source="YjRkIidzmu9C3SZWxRxo-26" target="YZFd6w_Mn8chgRQiEdNk-7">
          <mxGeometry relative="1" as="geometry" />
        </mxCell>
        <mxCell id="YjRkIidzmu9C3SZWxRxo-26" value="Log in to CASE system" style="points=[[0.25,0,0],[0.5,0,0],[0.75,0,0],[1,0.25,0],[1,0.5,0],[1,0.75,0],[0.75,1,0],[0.5,1,0],[0.25,1,0],[0,0.75,0],[0,0.5,0],[0,0.25,0]];shape=mxgraph.bpmn.task;whiteSpace=wrap;rectStyle=rounded;size=10;taskMarker=abstract;" parent="YjRkIidzmu9C3SZWxRxo-6" vertex="1">
          <mxGeometry x="410" y="80" width="120" height="80" as="geometry" />
        </mxCell>
        <mxCell id="YjRkIidzmu9C3SZWxRxo-27" value="" style="edgeStyle=orthogonalEdgeStyle;rounded=0;orthogonalLoop=1;jettySize=auto;html=1;" parent="YjRkIidzmu9C3SZWxRxo-6" source="YjRkIidzmu9C3SZWxRxo-25" target="YjRkIidzmu9C3SZWxRxo-26" edge="1">
          <mxGeometry relative="1" as="geometry" />
        </mxCell>
        <mxCell id="YZFd6w_Mn8chgRQiEdNk-7" value="Inserts the raw AQI monthly data" style="rounded=1;whiteSpace=wrap;html=1;" vertex="1" parent="YjRkIidzmu9C3SZWxRxo-6">
          <mxGeometry x="640" y="80" width="120" height="80" as="geometry" />
        </mxCell>
        <mxCell id="YZFd6w_Mn8chgRQiEdNk-10" value="Saves the raw AQI data" style="whiteSpace=wrap;html=1;rounded=1;" vertex="1" parent="YjRkIidzmu9C3SZWxRxo-6">
          <mxGeometry x="870" y="77.5" width="120" height="85" as="geometry" />
        </mxCell>
        <mxCell id="YZFd6w_Mn8chgRQiEdNk-11" value="" style="edgeStyle=orthogonalEdgeStyle;rounded=0;orthogonalLoop=1;jettySize=auto;html=1;" edge="1" parent="YjRkIidzmu9C3SZWxRxo-6" source="YZFd6w_Mn8chgRQiEdNk-7" target="YZFd6w_Mn8chgRQiEdNk-10">
          <mxGeometry relative="1" as="geometry" />
        </mxCell>
        <mxCell id="YZFd6w_Mn8chgRQiEdNk-12" value="" style="edgeStyle=orthogonalEdgeStyle;rounded=0;orthogonalLoop=1;jettySize=auto;html=1;" edge="1" parent="YjRkIidzmu9C3SZWxRxo-6" source="YZFd6w_Mn8chgRQiEdNk-10" target="YjRkIidzmu9C3SZWxRxo-34">
          <mxGeometry relative="1" as="geometry" />
        </mxCell>
        <mxCell id="YjRkIidzmu9C3SZWxRxo-57" value="Report Generation &amp;amp; Analyzing&lt;br&gt;" style="swimlane;html=1;childLayout=stackLayout;resizeParent=1;resizeParentMax=0;horizontal=0;startSize=20;horizontalStack=0;" parent="1" vertex="1">
          <mxGeometry x="90" y="820" width="1190" height="950" as="geometry" />
        </mxCell>
        <mxCell id="YjRkIidzmu9C3SZWxRxo-61" value="User" style="swimlane;html=1;startSize=20;horizontal=0;" parent="YjRkIidzmu9C3SZWxRxo-57" vertex="1">
          <mxGeometry x="20" width="1170" height="180" as="geometry" />
        </mxCell>
        <mxCell id="YZFd6w_Mn8chgRQiEdNk-60" value="" style="edgeStyle=orthogonalEdgeStyle;rounded=0;orthogonalLoop=1;jettySize=auto;html=1;" edge="1" parent="YjRkIidzmu9C3SZWxRxo-61" source="YjRkIidzmu9C3SZWxRxo-67" target="YZFd6w_Mn8chgRQiEdNk-59">
          <mxGeometry relative="1" as="geometry" />
        </mxCell>
        <mxCell id="YjRkIidzmu9C3SZWxRxo-67" value="" style="points=[[0.145,0.145,0],[0.5,0,0],[0.855,0.145,0],[1,0.5,0],[0.855,0.855,0],[0.5,1,0],[0.145,0.855,0],[0,0.5,0]];shape=mxgraph.bpmn.event;html=1;verticalLabelPosition=bottom;labelBackgroundColor=#ffffff;verticalAlign=top;align=center;perimeter=ellipsePerimeter;outlineConnect=0;aspect=fixed;outline=standard;symbol=general;" parent="YjRkIidzmu9C3SZWxRxo-61" vertex="1">
          <mxGeometry x="30" y="65" width="50" height="50" as="geometry" />
        </mxCell>
        <mxCell id="YjRkIidzmu9C3SZWxRxo-85" value="" style="edgeStyle=orthogonalEdgeStyle;rounded=0;orthogonalLoop=1;jettySize=auto;html=1;" parent="YjRkIidzmu9C3SZWxRxo-61" source="YjRkIidzmu9C3SZWxRxo-82" target="YjRkIidzmu9C3SZWxRxo-84" edge="1">
          <mxGeometry relative="1" as="geometry" />
        </mxCell>
        <mxCell id="YjRkIidzmu9C3SZWxRxo-82" value="Can view and download the monthly reports from CASE" style="rounded=1;whiteSpace=wrap;html=1;verticalAlign=top;labelBackgroundColor=#ffffff;" parent="YjRkIidzmu9C3SZWxRxo-61" vertex="1">
          <mxGeometry x="520" y="60" width="120" height="60" as="geometry" />
        </mxCell>
        <mxCell id="YjRkIidzmu9C3SZWxRxo-84" value="" style="points=[[0.145,0.145,0],[0.5,0,0],[0.855,0.145,0],[1,0.5,0],[0.855,0.855,0],[0.5,1,0],[0.145,0.855,0],[0,0.5,0]];shape=mxgraph.bpmn.event;html=1;verticalLabelPosition=bottom;labelBackgroundColor=#ffffff;verticalAlign=top;align=center;perimeter=ellipsePerimeter;outlineConnect=0;aspect=fixed;outline=end;symbol=terminate2;" parent="YjRkIidzmu9C3SZWxRxo-61" vertex="1">
          <mxGeometry x="820" y="65" width="50" height="50" as="geometry" />
        </mxCell>
        <mxCell id="YZFd6w_Mn8chgRQiEdNk-63" value="" style="edgeStyle=orthogonalEdgeStyle;rounded=0;orthogonalLoop=1;jettySize=auto;html=1;" edge="1" parent="YjRkIidzmu9C3SZWxRxo-61" source="YZFd6w_Mn8chgRQiEdNk-59" target="YjRkIidzmu9C3SZWxRxo-82">
          <mxGeometry relative="1" as="geometry" />
        </mxCell>
        <mxCell id="YZFd6w_Mn8chgRQiEdNk-59" value="Visit the website of CASE" style="rounded=1;whiteSpace=wrap;html=1;verticalAlign=top;labelBackgroundColor=#ffffff;" vertex="1" parent="YjRkIidzmu9C3SZWxRxo-61">
          <mxGeometry x="220" y="60" width="120" height="60" as="geometry" />
        </mxCell>
        <mxCell id="YjRkIidzmu9C3SZWxRxo-62" value="Ministry" style="swimlane;html=1;startSize=20;horizontal=0;" parent="YjRkIidzmu9C3SZWxRxo-57" vertex="1">
          <mxGeometry x="20" y="180" width="1170" height="190" as="geometry" />
        </mxCell>
        <mxCell id="YjRkIidzmu9C3SZWxRxo-79" value="" style="edgeStyle=orthogonalEdgeStyle;rounded=0;orthogonalLoop=1;jettySize=auto;html=1;" parent="YjRkIidzmu9C3SZWxRxo-62" source="YjRkIidzmu9C3SZWxRxo-66" target="YjRkIidzmu9C3SZWxRxo-78" edge="1">
          <mxGeometry relative="1" as="geometry" />
        </mxCell>
        <mxCell id="YjRkIidzmu9C3SZWxRxo-66" value="" style="points=[[0.145,0.145,0],[0.5,0,0],[0.855,0.145,0],[1,0.5,0],[0.855,0.855,0],[0.5,1,0],[0.145,0.855,0],[0,0.5,0]];shape=mxgraph.bpmn.event;html=1;verticalLabelPosition=bottom;labelBackgroundColor=#ffffff;verticalAlign=top;align=center;perimeter=ellipsePerimeter;outlineConnect=0;aspect=fixed;outline=standard;symbol=general;" parent="YjRkIidzmu9C3SZWxRxo-62" vertex="1">
          <mxGeometry x="30" y="70" width="50" height="50" as="geometry" />
        </mxCell>
        <mxCell id="YjRkIidzmu9C3SZWxRxo-81" value="" style="edgeStyle=orthogonalEdgeStyle;rounded=0;orthogonalLoop=1;jettySize=auto;html=1;" parent="YjRkIidzmu9C3SZWxRxo-62" source="YjRkIidzmu9C3SZWxRxo-78" target="YjRkIidzmu9C3SZWxRxo-80" edge="1">
          <mxGeometry relative="1" as="geometry" />
        </mxCell>
        <mxCell id="YjRkIidzmu9C3SZWxRxo-78" value="Receives air pollution report from CASE" style="rounded=1;whiteSpace=wrap;html=1;verticalAlign=top;labelBackgroundColor=#ffffff;" parent="YjRkIidzmu9C3SZWxRxo-62" vertex="1">
          <mxGeometry x="390" y="65" width="120" height="60" as="geometry" />
        </mxCell>
        <mxCell id="YjRkIidzmu9C3SZWxRxo-80" value="" style="points=[[0.145,0.145,0],[0.5,0,0],[0.855,0.145,0],[1,0.5,0],[0.855,0.855,0],[0.5,1,0],[0.145,0.855,0],[0,0.5,0]];shape=mxgraph.bpmn.event;html=1;verticalLabelPosition=bottom;labelBackgroundColor=#ffffff;verticalAlign=top;align=center;perimeter=ellipsePerimeter;outlineConnect=0;aspect=fixed;outline=end;symbol=terminate2;" parent="YjRkIidzmu9C3SZWxRxo-62" vertex="1">
          <mxGeometry x="820" y="70" width="50" height="50" as="geometry" />
        </mxCell>
        <mxCell id="YjRkIidzmu9C3SZWxRxo-58" value="Municipality" style="swimlane;html=1;startSize=20;horizontal=0;" parent="YjRkIidzmu9C3SZWxRxo-57" vertex="1">
          <mxGeometry x="20" y="370" width="1170" height="180" as="geometry" />
        </mxCell>
        <mxCell id="YjRkIidzmu9C3SZWxRxo-75" value="" style="edgeStyle=orthogonalEdgeStyle;rounded=0;orthogonalLoop=1;jettySize=auto;html=1;" parent="YjRkIidzmu9C3SZWxRxo-58" source="YjRkIidzmu9C3SZWxRxo-64" target="YjRkIidzmu9C3SZWxRxo-74" edge="1">
          <mxGeometry relative="1" as="geometry" />
        </mxCell>
        <mxCell id="YjRkIidzmu9C3SZWxRxo-64" value="" style="points=[[0.145,0.145,0],[0.5,0,0],[0.855,0.145,0],[1,0.5,0],[0.855,0.855,0],[0.5,1,0],[0.145,0.855,0],[0,0.5,0]];shape=mxgraph.bpmn.event;html=1;verticalLabelPosition=bottom;labelBackgroundColor=#ffffff;verticalAlign=top;align=center;perimeter=ellipsePerimeter;outlineConnect=0;aspect=fixed;outline=standard;symbol=general;" parent="YjRkIidzmu9C3SZWxRxo-58" vertex="1">
          <mxGeometry x="30" y="65" width="50" height="50" as="geometry" />
        </mxCell>
        <mxCell id="YjRkIidzmu9C3SZWxRxo-77" value="" style="edgeStyle=orthogonalEdgeStyle;rounded=0;orthogonalLoop=1;jettySize=auto;html=1;" parent="YjRkIidzmu9C3SZWxRxo-58" source="YjRkIidzmu9C3SZWxRxo-74" target="YjRkIidzmu9C3SZWxRxo-76" edge="1">
          <mxGeometry relative="1" as="geometry" />
        </mxCell>
        <mxCell id="YjRkIidzmu9C3SZWxRxo-74" value="Receives monthly report from CASE" style="rounded=1;whiteSpace=wrap;html=1;verticalAlign=top;labelBackgroundColor=#ffffff;" parent="YjRkIidzmu9C3SZWxRxo-58" vertex="1">
          <mxGeometry x="390" y="60" width="120" height="60" as="geometry" />
        </mxCell>
        <mxCell id="YjRkIidzmu9C3SZWxRxo-76" value="" style="points=[[0.145,0.145,0],[0.5,0,0],[0.855,0.145,0],[1,0.5,0],[0.855,0.855,0],[0.5,1,0],[0.145,0.855,0],[0,0.5,0]];shape=mxgraph.bpmn.event;html=1;verticalLabelPosition=bottom;labelBackgroundColor=#ffffff;verticalAlign=top;align=center;perimeter=ellipsePerimeter;outlineConnect=0;aspect=fixed;outline=end;symbol=terminate2;" parent="YjRkIidzmu9C3SZWxRxo-58" vertex="1">
          <mxGeometry x="820" y="65" width="50" height="50" as="geometry" />
        </mxCell>
        <mxCell id="YjRkIidzmu9C3SZWxRxo-59" value="Representative of CASE" style="swimlane;html=1;startSize=20;horizontal=0;" parent="YjRkIidzmu9C3SZWxRxo-57" vertex="1">
          <mxGeometry x="20" y="550" width="1170" height="200" as="geometry" />
        </mxCell>
        <mxCell id="YjRkIidzmu9C3SZWxRxo-69" value="" style="edgeStyle=orthogonalEdgeStyle;rounded=0;orthogonalLoop=1;jettySize=auto;html=1;" parent="YjRkIidzmu9C3SZWxRxo-59" source="YjRkIidzmu9C3SZWxRxo-63" target="YjRkIidzmu9C3SZWxRxo-68" edge="1">
          <mxGeometry relative="1" as="geometry" />
        </mxCell>
        <mxCell id="YjRkIidzmu9C3SZWxRxo-63" value="" style="points=[[0.145,0.145,0],[0.5,0,0],[0.855,0.145,0],[1,0.5,0],[0.855,0.855,0],[0.5,1,0],[0.145,0.855,0],[0,0.5,0]];shape=mxgraph.bpmn.event;html=1;verticalLabelPosition=bottom;labelBackgroundColor=#ffffff;verticalAlign=top;align=center;perimeter=ellipsePerimeter;outlineConnect=0;aspect=fixed;outline=standard;symbol=general;" parent="YjRkIidzmu9C3SZWxRxo-59" vertex="1">
          <mxGeometry x="30" y="75" width="50" height="50" as="geometry" />
        </mxCell>
        <mxCell id="YjRkIidzmu9C3SZWxRxo-71" value="" style="edgeStyle=orthogonalEdgeStyle;rounded=0;orthogonalLoop=1;jettySize=auto;html=1;" parent="YjRkIidzmu9C3SZWxRxo-59" source="YjRkIidzmu9C3SZWxRxo-68" target="YjRkIidzmu9C3SZWxRxo-70" edge="1">
          <mxGeometry relative="1" as="geometry" />
        </mxCell>
        <mxCell id="YjRkIidzmu9C3SZWxRxo-68" value="Creates Reports" style="rounded=1;whiteSpace=wrap;html=1;verticalAlign=top;labelBackgroundColor=#ffffff;" parent="YjRkIidzmu9C3SZWxRxo-59" vertex="1">
          <mxGeometry x="260" y="70" width="120" height="60" as="geometry" />
        </mxCell>
        <mxCell id="YjRkIidzmu9C3SZWxRxo-73" value="" style="edgeStyle=orthogonalEdgeStyle;rounded=0;orthogonalLoop=1;jettySize=auto;html=1;" parent="YjRkIidzmu9C3SZWxRxo-59" source="YjRkIidzmu9C3SZWxRxo-70" target="YjRkIidzmu9C3SZWxRxo-72" edge="1">
          <mxGeometry relative="1" as="geometry" />
        </mxCell>
        <mxCell id="YjRkIidzmu9C3SZWxRxo-70" value="Post it on CASE" style="rounded=1;whiteSpace=wrap;html=1;verticalAlign=top;labelBackgroundColor=#ffffff;" parent="YjRkIidzmu9C3SZWxRxo-59" vertex="1">
          <mxGeometry x="580" y="70" width="120" height="60" as="geometry" />
        </mxCell>
        <mxCell id="YjRkIidzmu9C3SZWxRxo-72" value="" style="points=[[0.145,0.145,0],[0.5,0,0],[0.855,0.145,0],[1,0.5,0],[0.855,0.855,0],[0.5,1,0],[0.145,0.855,0],[0,0.5,0]];shape=mxgraph.bpmn.event;html=1;verticalLabelPosition=bottom;labelBackgroundColor=#ffffff;verticalAlign=top;align=center;perimeter=ellipsePerimeter;outlineConnect=0;aspect=fixed;outline=end;symbol=terminate2;" parent="YjRkIidzmu9C3SZWxRxo-59" vertex="1">
          <mxGeometry x="820" y="75" width="50" height="50" as="geometry" />
        </mxCell>
        <mxCell id="YjRkIidzmu9C3SZWxRxo-91" value="" style="edgeStyle=elbowEdgeStyle;fontSize=12;html=1;endFill=0;startFill=0;endSize=6;startSize=6;dashed=1;dashPattern=1 4;endArrow=openThin;startArrow=none;rounded=0;" parent="YjRkIidzmu9C3SZWxRxo-59" edge="1">
          <mxGeometry width="160" relative="1" as="geometry">
            <mxPoint x="450" y="260" as="sourcePoint" />
            <mxPoint x="450" y="-57" as="targetPoint" />
            <Array as="points">
              <mxPoint x="450" y="30" />
            </Array>
          </mxGeometry>
        </mxCell>
        <mxCell id="YjRkIidzmu9C3SZWxRxo-60" value="CASE" style="swimlane;html=1;startSize=20;horizontal=0;" parent="YjRkIidzmu9C3SZWxRxo-57" vertex="1">
          <mxGeometry x="20" y="750" width="1170" height="200" as="geometry" />
        </mxCell>
        <mxCell id="YjRkIidzmu9C3SZWxRxo-87" value="" style="edgeStyle=orthogonalEdgeStyle;rounded=0;orthogonalLoop=1;jettySize=auto;html=1;" parent="YjRkIidzmu9C3SZWxRxo-60" source="YjRkIidzmu9C3SZWxRxo-65" target="YjRkIidzmu9C3SZWxRxo-86" edge="1">
          <mxGeometry relative="1" as="geometry" />
        </mxCell>
        <mxCell id="YjRkIidzmu9C3SZWxRxo-65" value="" style="points=[[0.145,0.145,0],[0.5,0,0],[0.855,0.145,0],[1,0.5,0],[0.855,0.855,0],[0.5,1,0],[0.145,0.855,0],[0,0.5,0]];shape=mxgraph.bpmn.event;html=1;verticalLabelPosition=bottom;labelBackgroundColor=#ffffff;verticalAlign=top;align=center;perimeter=ellipsePerimeter;outlineConnect=0;aspect=fixed;outline=standard;symbol=general;" parent="YjRkIidzmu9C3SZWxRxo-60" vertex="1">
          <mxGeometry x="30" y="75" width="50" height="50" as="geometry" />
        </mxCell>
        <mxCell id="YjRkIidzmu9C3SZWxRxo-89" value="" style="edgeStyle=orthogonalEdgeStyle;rounded=0;orthogonalLoop=1;jettySize=auto;html=1;" parent="YjRkIidzmu9C3SZWxRxo-60" source="YjRkIidzmu9C3SZWxRxo-86" target="YjRkIidzmu9C3SZWxRxo-88" edge="1">
          <mxGeometry relative="1" as="geometry" />
        </mxCell>
        <mxCell id="YjRkIidzmu9C3SZWxRxo-86" value="Shows Reports posted by the representative of CASE" style="rounded=1;whiteSpace=wrap;html=1;verticalAlign=top;labelBackgroundColor=#ffffff;" parent="YjRkIidzmu9C3SZWxRxo-60" vertex="1">
          <mxGeometry x="390" y="65" width="120" height="70" as="geometry" />
        </mxCell>
        <mxCell id="YjRkIidzmu9C3SZWxRxo-88" value="" style="points=[[0.145,0.145,0],[0.5,0,0],[0.855,0.145,0],[1,0.5,0],[0.855,0.855,0],[0.5,1,0],[0.145,0.855,0],[0,0.5,0]];shape=mxgraph.bpmn.event;html=1;verticalLabelPosition=bottom;labelBackgroundColor=#ffffff;verticalAlign=top;align=center;perimeter=ellipsePerimeter;outlineConnect=0;aspect=fixed;outline=end;symbol=terminate2;" parent="YjRkIidzmu9C3SZWxRxo-60" vertex="1">
          <mxGeometry x="820" y="75" width="50" height="50" as="geometry" />
        </mxCell>
        <mxCell id="YjRkIidzmu9C3SZWxRxo-90" value="" style="edgeStyle=elbowEdgeStyle;fontSize=12;html=1;endFill=0;startFill=0;endSize=6;startSize=6;dashed=1;dashPattern=1 4;endArrow=openThin;startArrow=none;rounded=0;entryX=1;entryY=0.25;entryDx=0;entryDy=0;exitX=0.5;exitY=1;exitDx=0;exitDy=0;" parent="YjRkIidzmu9C3SZWxRxo-57" source="YjRkIidzmu9C3SZWxRxo-70" target="YjRkIidzmu9C3SZWxRxo-86" edge="1">
          <mxGeometry width="160" relative="1" as="geometry">
            <mxPoint x="560" y="720" as="sourcePoint" />
            <mxPoint x="530" y="800" as="targetPoint" />
            <Array as="points">
              <mxPoint x="600" y="810" />
            </Array>
          </mxGeometry>
        </mxCell>
        <mxCell id="YjRkIidzmu9C3SZWxRxo-92" value="" style="edgeStyle=elbowEdgeStyle;fontSize=12;html=1;endFill=0;startFill=0;endSize=6;startSize=6;dashed=1;dashPattern=1 4;endArrow=openThin;startArrow=none;rounded=0;exitX=0;exitY=0.25;exitDx=0;exitDy=0;entryX=0;entryY=0.75;entryDx=0;entryDy=0;" parent="YjRkIidzmu9C3SZWxRxo-57" source="YjRkIidzmu9C3SZWxRxo-86" target="YjRkIidzmu9C3SZWxRxo-78" edge="1">
          <mxGeometry width="160" relative="1" as="geometry">
            <mxPoint x="580" y="720" as="sourcePoint" />
            <mxPoint x="500" y="310" as="targetPoint" />
            <Array as="points">
              <mxPoint x="190" y="500" />
            </Array>
          </mxGeometry>
        </mxCell>
        <mxCell id="YjRkIidzmu9C3SZWxRxo-93" value="" style="edgeStyle=elbowEdgeStyle;fontSize=12;html=1;endFill=0;startFill=0;endSize=6;startSize=6;dashed=1;dashPattern=1 4;endArrow=openThin;startArrow=none;rounded=0;entryX=1;entryY=0.75;entryDx=0;entryDy=0;exitX=1;exitY=0;exitDx=0;exitDy=0;" parent="YjRkIidzmu9C3SZWxRxo-57" source="YjRkIidzmu9C3SZWxRxo-86" target="YjRkIidzmu9C3SZWxRxo-82" edge="1">
          <mxGeometry width="160" relative="1" as="geometry">
            <mxPoint x="540" y="140" as="sourcePoint" />
            <mxPoint x="700" y="140" as="targetPoint" />
            <Array as="points">
              <mxPoint x="560" y="460" />
            </Array>
          </mxGeometry>
        </mxCell>
        <mxCell id="YZFd6w_Mn8chgRQiEdNk-1" value="Verification and Validation of Data&lt;br&gt;" style="swimlane;html=1;childLayout=stackLayout;resizeParent=1;resizeParentMax=0;horizontal=0;startSize=20;horizontalStack=0;" vertex="1" parent="1">
          <mxGeometry x="90" y="50" width="1190" height="550" as="geometry" />
        </mxCell>
        <mxCell id="YZFd6w_Mn8chgRQiEdNk-2" value="Ministry&lt;br&gt;" style="swimlane;html=1;startSize=20;horizontal=0;" vertex="1" parent="YZFd6w_Mn8chgRQiEdNk-1">
          <mxGeometry x="20" width="1170" height="160" as="geometry" />
        </mxCell>
        <mxCell id="YZFd6w_Mn8chgRQiEdNk-17" value="" style="edgeStyle=orthogonalEdgeStyle;rounded=0;orthogonalLoop=1;jettySize=auto;html=1;" edge="1" parent="YZFd6w_Mn8chgRQiEdNk-2" source="YZFd6w_Mn8chgRQiEdNk-13" target="YZFd6w_Mn8chgRQiEdNk-16">
          <mxGeometry relative="1" as="geometry" />
        </mxCell>
        <mxCell id="YZFd6w_Mn8chgRQiEdNk-13" value="" style="points=[[0.145,0.145,0],[0.5,0,0],[0.855,0.145,0],[1,0.5,0],[0.855,0.855,0],[0.5,1,0],[0.145,0.855,0],[0,0.5,0]];shape=mxgraph.bpmn.event;html=1;verticalLabelPosition=bottom;labelBackgroundColor=#ffffff;verticalAlign=top;align=center;perimeter=ellipsePerimeter;outlineConnect=0;aspect=fixed;outline=standard;symbol=general;" vertex="1" parent="YZFd6w_Mn8chgRQiEdNk-2">
          <mxGeometry x="40" y="55" width="50" height="50" as="geometry" />
        </mxCell>
        <mxCell id="YZFd6w_Mn8chgRQiEdNk-19" value="" style="edgeStyle=orthogonalEdgeStyle;rounded=0;orthogonalLoop=1;jettySize=auto;html=1;" edge="1" parent="YZFd6w_Mn8chgRQiEdNk-2" source="YZFd6w_Mn8chgRQiEdNk-16" target="YZFd6w_Mn8chgRQiEdNk-18">
          <mxGeometry relative="1" as="geometry" />
        </mxCell>
        <mxCell id="YZFd6w_Mn8chgRQiEdNk-16" value="Forms the rules and regulations need to be maintained" style="rounded=1;whiteSpace=wrap;html=1;verticalAlign=top;labelBackgroundColor=#ffffff;" vertex="1" parent="YZFd6w_Mn8chgRQiEdNk-2">
          <mxGeometry x="250" y="50" width="120" height="60" as="geometry" />
        </mxCell>
        <mxCell id="YZFd6w_Mn8chgRQiEdNk-21" value="" style="edgeStyle=orthogonalEdgeStyle;rounded=0;orthogonalLoop=1;jettySize=auto;html=1;" edge="1" parent="YZFd6w_Mn8chgRQiEdNk-2" source="YZFd6w_Mn8chgRQiEdNk-18" target="YZFd6w_Mn8chgRQiEdNk-20">
          <mxGeometry relative="1" as="geometry" />
        </mxCell>
        <mxCell id="YZFd6w_Mn8chgRQiEdNk-18" value="Sends the rules and regulations to municipality" style="rounded=1;whiteSpace=wrap;html=1;verticalAlign=top;labelBackgroundColor=#ffffff;" vertex="1" parent="YZFd6w_Mn8chgRQiEdNk-2">
          <mxGeometry x="560" y="50" width="120" height="60" as="geometry" />
        </mxCell>
        <mxCell id="YZFd6w_Mn8chgRQiEdNk-20" value="" style="points=[[0.145,0.145,0],[0.5,0,0],[0.855,0.145,0],[1,0.5,0],[0.855,0.855,0],[0.5,1,0],[0.145,0.855,0],[0,0.5,0]];shape=mxgraph.bpmn.event;html=1;verticalLabelPosition=bottom;labelBackgroundColor=#ffffff;verticalAlign=top;align=center;perimeter=ellipsePerimeter;outlineConnect=0;aspect=fixed;outline=end;symbol=terminate2;" vertex="1" parent="YZFd6w_Mn8chgRQiEdNk-2">
          <mxGeometry x="1080" y="55" width="50" height="50" as="geometry" />
        </mxCell>
        <mxCell id="YZFd6w_Mn8chgRQiEdNk-3" value="Municipality" style="swimlane;html=1;startSize=20;horizontal=0;" vertex="1" parent="YZFd6w_Mn8chgRQiEdNk-1">
          <mxGeometry x="20" y="160" width="1170" height="160" as="geometry" />
        </mxCell>
        <mxCell id="YZFd6w_Mn8chgRQiEdNk-23" value="" style="edgeStyle=orthogonalEdgeStyle;rounded=0;orthogonalLoop=1;jettySize=auto;html=1;" edge="1" parent="YZFd6w_Mn8chgRQiEdNk-3" source="YZFd6w_Mn8chgRQiEdNk-14" target="YZFd6w_Mn8chgRQiEdNk-22">
          <mxGeometry relative="1" as="geometry" />
        </mxCell>
        <mxCell id="YZFd6w_Mn8chgRQiEdNk-14" value="" style="points=[[0.145,0.145,0],[0.5,0,0],[0.855,0.145,0],[1,0.5,0],[0.855,0.855,0],[0.5,1,0],[0.145,0.855,0],[0,0.5,0]];shape=mxgraph.bpmn.event;html=1;verticalLabelPosition=bottom;labelBackgroundColor=#ffffff;verticalAlign=top;align=center;perimeter=ellipsePerimeter;outlineConnect=0;aspect=fixed;outline=standard;symbol=general;" vertex="1" parent="YZFd6w_Mn8chgRQiEdNk-3">
          <mxGeometry x="40" y="55" width="50" height="50" as="geometry" />
        </mxCell>
        <mxCell id="YZFd6w_Mn8chgRQiEdNk-25" value="" style="edgeStyle=orthogonalEdgeStyle;rounded=0;orthogonalLoop=1;jettySize=auto;html=1;" edge="1" parent="YZFd6w_Mn8chgRQiEdNk-3" source="YZFd6w_Mn8chgRQiEdNk-22" target="YZFd6w_Mn8chgRQiEdNk-24">
          <mxGeometry relative="1" as="geometry" />
        </mxCell>
        <mxCell id="YZFd6w_Mn8chgRQiEdNk-22" value="Receives the rules and regulations from the ministry" style="rounded=1;whiteSpace=wrap;html=1;verticalAlign=top;labelBackgroundColor=#ffffff;" vertex="1" parent="YZFd6w_Mn8chgRQiEdNk-3">
          <mxGeometry x="170" y="40" width="120" height="80" as="geometry" />
        </mxCell>
        <mxCell id="YZFd6w_Mn8chgRQiEdNk-27" value="" style="edgeStyle=orthogonalEdgeStyle;rounded=0;orthogonalLoop=1;jettySize=auto;html=1;" edge="1" parent="YZFd6w_Mn8chgRQiEdNk-3" source="YZFd6w_Mn8chgRQiEdNk-24" target="YZFd6w_Mn8chgRQiEdNk-26">
          <mxGeometry relative="1" as="geometry" />
        </mxCell>
        <mxCell id="YZFd6w_Mn8chgRQiEdNk-24" value="Checks and corrects the rules and regulations if required" style="whiteSpace=wrap;html=1;verticalAlign=top;rounded=1;labelBackgroundColor=#ffffff;" vertex="1" parent="YZFd6w_Mn8chgRQiEdNk-3">
          <mxGeometry x="390" y="40" width="120" height="80" as="geometry" />
        </mxCell>
        <mxCell id="YZFd6w_Mn8chgRQiEdNk-29" value="" style="edgeStyle=orthogonalEdgeStyle;rounded=0;orthogonalLoop=1;jettySize=auto;html=1;" edge="1" parent="YZFd6w_Mn8chgRQiEdNk-3" source="YZFd6w_Mn8chgRQiEdNk-26" target="YZFd6w_Mn8chgRQiEdNk-28">
          <mxGeometry relative="1" as="geometry" />
        </mxCell>
        <mxCell id="YZFd6w_Mn8chgRQiEdNk-26" value="Sends the rules and regulations to the representative of CASE" style="whiteSpace=wrap;html=1;verticalAlign=top;rounded=1;labelBackgroundColor=#ffffff;" vertex="1" parent="YZFd6w_Mn8chgRQiEdNk-3">
          <mxGeometry x="620" y="40" width="120" height="80" as="geometry" />
        </mxCell>
        <mxCell id="YZFd6w_Mn8chgRQiEdNk-28" value="" style="points=[[0.145,0.145,0],[0.5,0,0],[0.855,0.145,0],[1,0.5,0],[0.855,0.855,0],[0.5,1,0],[0.145,0.855,0],[0,0.5,0]];shape=mxgraph.bpmn.event;html=1;verticalLabelPosition=bottom;labelBackgroundColor=#ffffff;verticalAlign=top;align=center;perimeter=ellipsePerimeter;outlineConnect=0;aspect=fixed;outline=end;symbol=terminate2;" vertex="1" parent="YZFd6w_Mn8chgRQiEdNk-3">
          <mxGeometry x="1080" y="55" width="50" height="50" as="geometry" />
        </mxCell>
        <mxCell id="YZFd6w_Mn8chgRQiEdNk-4" value="Representative of CASE&lt;br&gt;" style="swimlane;html=1;startSize=20;horizontal=0;" vertex="1" parent="YZFd6w_Mn8chgRQiEdNk-1">
          <mxGeometry x="20" y="320" width="1170" height="230" as="geometry" />
        </mxCell>
        <mxCell id="YZFd6w_Mn8chgRQiEdNk-33" value="" style="edgeStyle=orthogonalEdgeStyle;rounded=0;orthogonalLoop=1;jettySize=auto;html=1;" edge="1" parent="YZFd6w_Mn8chgRQiEdNk-4" source="YZFd6w_Mn8chgRQiEdNk-15" target="YZFd6w_Mn8chgRQiEdNk-32">
          <mxGeometry relative="1" as="geometry" />
        </mxCell>
        <mxCell id="YZFd6w_Mn8chgRQiEdNk-15" value="" style="points=[[0.145,0.145,0],[0.5,0,0],[0.855,0.145,0],[1,0.5,0],[0.855,0.855,0],[0.5,1,0],[0.145,0.855,0],[0,0.5,0]];shape=mxgraph.bpmn.event;html=1;verticalLabelPosition=bottom;labelBackgroundColor=#ffffff;verticalAlign=top;align=center;perimeter=ellipsePerimeter;outlineConnect=0;aspect=fixed;outline=standard;symbol=general;" vertex="1" parent="YZFd6w_Mn8chgRQiEdNk-4">
          <mxGeometry x="40" y="90" width="50" height="50" as="geometry" />
        </mxCell>
        <mxCell id="YZFd6w_Mn8chgRQiEdNk-35" value="" style="edgeStyle=orthogonalEdgeStyle;rounded=0;orthogonalLoop=1;jettySize=auto;html=1;" edge="1" parent="YZFd6w_Mn8chgRQiEdNk-4" source="YZFd6w_Mn8chgRQiEdNk-32" target="YZFd6w_Mn8chgRQiEdNk-34">
          <mxGeometry relative="1" as="geometry" />
        </mxCell>
        <mxCell id="YZFd6w_Mn8chgRQiEdNk-32" value="Receives the rules and regulations from municipality" style="rounded=1;whiteSpace=wrap;html=1;verticalAlign=top;labelBackgroundColor=#ffffff;" vertex="1" parent="YZFd6w_Mn8chgRQiEdNk-4">
          <mxGeometry x="120" y="85" width="120" height="60" as="geometry" />
        </mxCell>
        <mxCell id="YZFd6w_Mn8chgRQiEdNk-37" value="" style="edgeStyle=orthogonalEdgeStyle;rounded=0;orthogonalLoop=1;jettySize=auto;html=1;" edge="1" parent="YZFd6w_Mn8chgRQiEdNk-4" source="YZFd6w_Mn8chgRQiEdNk-34" target="YZFd6w_Mn8chgRQiEdNk-36">
          <mxGeometry relative="1" as="geometry" />
        </mxCell>
        <mxCell id="YZFd6w_Mn8chgRQiEdNk-34" value="Log in to the CASE system" style="whiteSpace=wrap;html=1;verticalAlign=top;rounded=1;labelBackgroundColor=#ffffff;" vertex="1" parent="YZFd6w_Mn8chgRQiEdNk-4">
          <mxGeometry x="270" y="85" width="120" height="60" as="geometry" />
        </mxCell>
        <mxCell id="YZFd6w_Mn8chgRQiEdNk-39" value="" style="edgeStyle=orthogonalEdgeStyle;rounded=0;orthogonalLoop=1;jettySize=auto;html=1;entryX=0;entryY=0.5;entryDx=0;entryDy=0;entryPerimeter=0;" edge="1" parent="YZFd6w_Mn8chgRQiEdNk-4" source="YZFd6w_Mn8chgRQiEdNk-36" target="YZFd6w_Mn8chgRQiEdNk-43">
          <mxGeometry relative="1" as="geometry">
            <mxPoint x="560" y="115" as="targetPoint" />
          </mxGeometry>
        </mxCell>
        <mxCell id="YZFd6w_Mn8chgRQiEdNk-36" value="Views the data" style="whiteSpace=wrap;html=1;verticalAlign=top;rounded=1;labelBackgroundColor=#ffffff;" vertex="1" parent="YZFd6w_Mn8chgRQiEdNk-4">
          <mxGeometry x="420" y="85" width="120" height="60" as="geometry" />
        </mxCell>
        <mxCell id="YZFd6w_Mn8chgRQiEdNk-50" value="" style="edgeStyle=orthogonalEdgeStyle;rounded=0;orthogonalLoop=1;jettySize=auto;html=1;" edge="1" parent="YZFd6w_Mn8chgRQiEdNk-4" source="YZFd6w_Mn8chgRQiEdNk-43" target="YZFd6w_Mn8chgRQiEdNk-49">
          <mxGeometry relative="1" as="geometry" />
        </mxCell>
        <mxCell id="YZFd6w_Mn8chgRQiEdNk-43" value="" style="points=[[0.25,0.25,0],[0.5,0,0],[0.75,0.25,0],[1,0.5,0],[0.75,0.75,0],[0.5,1,0],[0.25,0.75,0],[0,0.5,0]];shape=mxgraph.bpmn.gateway2;html=1;verticalLabelPosition=bottom;labelBackgroundColor=#ffffff;verticalAlign=top;align=center;perimeter=rhombusPerimeter;outlineConnect=0;outline=none;symbol=none;" vertex="1" parent="YZFd6w_Mn8chgRQiEdNk-4">
          <mxGeometry x="570" y="90" width="50" height="50" as="geometry" />
        </mxCell>
        <mxCell id="YZFd6w_Mn8chgRQiEdNk-49" value="Delete the anomaly and update the data" style="rounded=1;whiteSpace=wrap;html=1;verticalAlign=top;labelBackgroundColor=#ffffff;" vertex="1" parent="YZFd6w_Mn8chgRQiEdNk-4">
          <mxGeometry x="740" y="85" width="120" height="60" as="geometry" />
        </mxCell>
        <mxCell id="YZFd6w_Mn8chgRQiEdNk-51" value="Save the data" style="rounded=1;whiteSpace=wrap;html=1;verticalAlign=top;labelBackgroundColor=#ffffff;" vertex="1" parent="YZFd6w_Mn8chgRQiEdNk-4">
          <mxGeometry x="910" y="85" width="120" height="60" as="geometry" />
        </mxCell>
        <mxCell id="YZFd6w_Mn8chgRQiEdNk-52" value="" style="edgeStyle=orthogonalEdgeStyle;rounded=0;orthogonalLoop=1;jettySize=auto;html=1;" edge="1" parent="YZFd6w_Mn8chgRQiEdNk-4" source="YZFd6w_Mn8chgRQiEdNk-49" target="YZFd6w_Mn8chgRQiEdNk-51">
          <mxGeometry relative="1" as="geometry" />
        </mxCell>
        <mxCell id="YZFd6w_Mn8chgRQiEdNk-53" value="" style="points=[[0.145,0.145,0],[0.5,0,0],[0.855,0.145,0],[1,0.5,0],[0.855,0.855,0],[0.5,1,0],[0.145,0.855,0],[0,0.5,0]];shape=mxgraph.bpmn.event;html=1;verticalLabelPosition=bottom;labelBackgroundColor=#ffffff;verticalAlign=top;align=center;perimeter=ellipsePerimeter;outlineConnect=0;aspect=fixed;outline=end;symbol=terminate2;" vertex="1" parent="YZFd6w_Mn8chgRQiEdNk-4">
          <mxGeometry x="1080" y="90" width="50" height="50" as="geometry" />
        </mxCell>
        <mxCell id="YZFd6w_Mn8chgRQiEdNk-54" value="" style="edgeStyle=orthogonalEdgeStyle;rounded=0;orthogonalLoop=1;jettySize=auto;html=1;" edge="1" parent="YZFd6w_Mn8chgRQiEdNk-4" source="YZFd6w_Mn8chgRQiEdNk-51" target="YZFd6w_Mn8chgRQiEdNk-53">
          <mxGeometry relative="1" as="geometry" />
        </mxCell>
        <mxCell id="YZFd6w_Mn8chgRQiEdNk-56" value="If data is not valid" style="text;html=1;align=center;verticalAlign=middle;resizable=0;points=[];autosize=1;strokeColor=none;fillColor=none;" vertex="1" parent="YZFd6w_Mn8chgRQiEdNk-4">
          <mxGeometry x="610" y="90" width="120" height="30" as="geometry" />
        </mxCell>
        <mxCell id="YZFd6w_Mn8chgRQiEdNk-57" value="" style="endArrow=classic;html=1;rounded=0;entryX=0.5;entryY=0;entryDx=0;entryDy=0;exitX=0.5;exitY=0;exitDx=0;exitDy=0;exitPerimeter=0;" edge="1" parent="YZFd6w_Mn8chgRQiEdNk-4" source="YZFd6w_Mn8chgRQiEdNk-43" target="YZFd6w_Mn8chgRQiEdNk-51">
          <mxGeometry width="50" height="50" relative="1" as="geometry">
            <mxPoint x="570" y="200" as="sourcePoint" />
            <mxPoint x="620" y="150" as="targetPoint" />
            <Array as="points">
              <mxPoint x="595" y="20" />
              <mxPoint x="970" y="20" />
            </Array>
          </mxGeometry>
        </mxCell>
        <mxCell id="YZFd6w_Mn8chgRQiEdNk-58" value="If data is valid" style="text;html=1;align=center;verticalAlign=middle;resizable=0;points=[];autosize=1;strokeColor=none;fillColor=none;" vertex="1" parent="YZFd6w_Mn8chgRQiEdNk-4">
          <mxGeometry x="620" y="15" width="100" height="30" as="geometry" />
        </mxCell>
      </root>
    </mxGraphModel>
  </diagram>
</mxfile>
